<svg width="212" height="34" viewBox="0 0 212 34" fill="none" xmlns="http://www.w3.org/2000/svg">
<g clip-path="url(#clip0_383_1306)">
<path d="M68.9099 18.0767L65.2993 21.607V27.9819H59.1128V2.77039H65.2993V14.5463L77.209 2.77039H84.1272L72.9837 14.0066L84.7809 27.9819H77.5207L68.9099 18.0767Z" fill="black"/>
<path d="M94.8445 9.03565C96.061 8.55683 97.4637 8.31335 99.0525 8.31335V13.5034C98.3858 13.4547 97.9399 13.4303 97.7061 13.4303C95.9917 13.4303 94.6453 13.8808 93.6713 14.7816C92.6972 15.6824 92.2123 17.0337 92.2123 18.8354V27.9818H86.2163V8.60552H91.9396V11.162C92.6582 10.2246 93.6236 9.51854 94.8445 9.03565Z" fill="black"/>
<path d="M124.834 8.60559L115.496 29.1709C114.548 31.4027 114.18 31.7195 112.786 32.6325C111.387 33.5455 109.703 34 107.733 34C106.655 34 105.595 33.8418 104.543 33.5334C103.491 33.2209 102.634 32.7908 101.967 32.2349L104.157 28.2379C104.621 28.6234 105.149 28.9236 105.751 29.1387C106.352 29.3538 106.95 29.4633 107.539 29.4633C108.24 29.4633 108.83 29.3263 109.308 29.0521C109.467 28.9611 109.602 28.8381 109.727 28.7087C109.958 28.4688 110.006 28.4192 110.076 28.3496C110.104 28.3211 110.127 28.2881 110.143 28.252C110.177 28.1727 110.177 28.0837 110.14 28.0049L101.244 8.60559H107.431L113.232 21.7531L119.072 8.60559H124.834Z" fill="black"/>
<path d="M144.474 9.55921C146.05 10.387 147.284 11.5516 148.18 13.053C149.076 14.5545 149.527 16.2993 149.527 18.2917C149.527 20.2842 149.076 22.0331 148.18 23.5305C147.284 25.0319 146.046 26.1965 144.474 27.0243C142.898 27.8521 141.149 28.266 139.227 28.266C136.586 28.266 134.513 27.4869 133.002 25.9246V33.4604H127.006V8.60561H132.729V10.8374C134.214 9.15748 136.379 8.3175 139.223 8.3175C141.154 8.3175 142.898 8.73141 144.474 9.55921ZM141.976 22.1995C142.963 21.2256 143.457 19.923 143.457 18.2917C143.457 16.6605 142.963 15.3579 141.976 14.384C140.989 13.4101 139.729 12.9272 138.193 12.9272C136.656 12.9272 135.392 13.4142 134.409 14.384C133.422 15.3579 132.928 16.6605 132.928 18.2917C132.928 19.923 133.422 21.2256 134.409 22.1995C135.396 23.1734 136.656 23.6563 138.193 23.6563C139.729 23.6603 140.994 23.1734 141.976 22.1995Z" fill="black"/>
<path d="M166.508 27.0445C165.92 27.4544 165.197 27.7587 164.339 27.9616C163.482 28.1645 162.577 28.2659 161.629 28.2659C159.17 28.2659 157.27 27.6775 155.923 26.5008C154.577 25.324 153.906 23.5953 153.906 21.3148V13.3614H150.715V9.03568H153.906V4.32043H159.902V9.03974H165.049V13.3614H159.902V21.2499C159.902 22.0655 160.127 22.6985 160.573 23.1408C161.019 23.5872 161.655 23.8063 162.473 23.8063C163.422 23.8063 164.227 23.5669 164.894 23.084L166.508 27.0445Z" fill="black"/>
<path d="M189.195 19.8783H173.558C173.839 21.0794 174.506 22.029 175.558 22.7229C176.61 23.4208 177.913 23.7657 179.476 23.7657C180.554 23.7657 181.506 23.6156 182.337 23.3153C183.168 23.015 183.943 22.5402 184.662 21.891L187.853 25.1332C185.905 27.223 183.06 28.2659 179.324 28.2659C176.995 28.2659 174.93 27.8398 173.138 26.9877C171.345 26.1355 169.96 24.9547 168.986 23.4411C168.012 21.9275 167.527 20.211 167.527 18.2917C167.527 16.3966 168.007 14.6842 168.969 13.1585C169.93 11.6327 171.25 10.4437 172.926 9.59158C174.601 8.73943 176.48 8.31335 178.554 8.31335C180.575 8.31335 182.407 8.7232 184.047 9.53883C185.688 10.3545 186.974 11.5272 187.909 13.0489C188.844 14.5746 189.312 16.3439 189.312 18.3606C189.312 18.4377 189.273 18.9409 189.195 19.8783ZM175.172 13.6495C174.25 14.3718 173.687 15.3538 173.48 16.6036H183.662C183.459 15.3781 182.891 14.4002 181.969 13.6697C181.047 12.9393 179.922 12.5701 178.588 12.5701C177.233 12.566 176.095 12.9272 175.172 13.6495Z" fill="black"/>
<path d="M205.286 27.9819L200.753 22.0412L196.065 27.9819H189.532L197.485 18.2227L189.8 8.60559H196.523L200.905 14.2582L205.398 8.60559H211.775L204.091 18.0767L212.083 27.9819H205.286Z" fill="black"/>
<path fill-rule="evenodd" clip-rule="evenodd" d="M45.7328 10.0984H31.4454L14.8159 25.5666L18.7746 29.2871C21.1507 31.52 24.973 31.5075 27.3332 29.2592L44.356 13.0426C45.215 12.2244 45.6739 11.1695 45.7328 10.0984Z" fill="#4AA7FF"/>
<path d="M13.6293 20.9954C11.6557 21.3206 9.63641 20.7287 8.21211 19.4075L2.05166 13.693C0.970344 12.7759 0.0600891 11.4694 0.0600891 10.0984H31.4455L21.1398 19.7576L13.6293 20.9954Z" fill="#1A7BFF"/>
<path fill-rule="evenodd" clip-rule="evenodd" d="M0.105427 10.0983H31.4748L20.4584 0H12.9609C9.92573 0 7.01494 1.17682 4.86878 3.27158L1.47783 6.58131C0.488296 7.54715 0.0312326 8.835 0.105427 10.0983Z" fill="#379FFF"/>
<path fill-rule="evenodd" clip-rule="evenodd" d="M20.4372 0L31.4353 10.0983H45.7263C45.7947 8.84176 45.3306 7.5633 44.3333 6.60351L40.8715 3.27158C38.6952 1.17682 35.7435 0 32.6658 0H20.4372Z" fill="#66CFFF"/>
</g>
<defs>
<clipPath id="clip0_383_1306">
<rect width="212" height="34" fill="white"/>
</clipPath>
</defs>
</svg>
